<?xml version="1.0" encoding="UTF-8"?>
<svg width="58px" height="10px" viewBox="0 0 58 10" version="1.1" xmlns="http://www.w3.org/2000/svg" xmlns:xlink="http://www.w3.org/1999/xlink">
    <title>kaiseratlas</title>
    <g id="Page-1" stroke="none" stroke-width="1" fill="none" fill-rule="evenodd">
        <path d="M2.304,9 L2.304,7.212 L3.036,6.432 L4.524,9 L6.42,9 L4.236,5.22 L6.168,3.18 L5.34,3.18 L2.304,6.396 L2.304,0.144 L0.612,0.144 L0.612,9 L2.304,9 Z M8.916,9.096 C9.564,9.096 10.104,8.952 10.548,8.652 L10.548,9 L12.168,9 L12.168,5.004 C12.168,3.624 11.316,3.12 9.396,3.12 C8.832,3.12 8.196,3.18 7.488,3.3 L7.488,3.816 C7.992,3.744 8.496,3.708 9,3.708 C10.092,3.708 10.536,3.924 10.536,4.872 L10.536,5.52 L9.048,5.52 C7.524,5.52 6.768,6.12 6.768,7.32 C6.768,8.412 7.512,9.096 8.916,9.096 Z M9.54,8.496 C8.724,8.496 8.46,8.16 8.46,7.236 C8.46,6.324 8.724,6 9.576,6 L10.536,6 L10.536,8.328 C10.26,8.436 9.924,8.496 9.54,8.496 Z M15.084,2.208 L15.084,0.696 L13.356,0.696 L13.356,2.208 L15.084,2.208 Z M15.084,9 L15.084,3.18 L13.356,3.18 L13.356,9 L15.084,9 Z M18.06,9.06 C20.028,9.06 21.012,8.448 21.024,7.212 C21.036,6.636 20.844,6.216 20.472,5.94 C20.22,5.76 19.74,5.58 19.032,5.388 C18.516,5.256 18.168,5.148 17.976,5.04 C17.748,4.92 17.628,4.716 17.628,4.428 C17.64,3.936 18.024,3.696 18.972,3.696 C19.488,3.696 19.992,3.732 20.484,3.804 L20.484,3.288 C19.896,3.18 19.284,3.12 18.648,3.12 C16.968,3.12 16.128,3.732 16.128,4.944 C16.128,5.4 16.272,5.772 16.572,6.072 C16.8,6.3 17.292,6.516 18.072,6.72 C18.624,6.852 18.996,6.984 19.2,7.092 C19.428,7.224 19.536,7.416 19.524,7.668 C19.524,8.232 19.08,8.484 17.892,8.484 C17.22,8.484 16.608,8.448 16.044,8.376 L16.044,8.88 C16.824,9 17.496,9.06 18.06,9.06 Z M25.224,9.06 C25.932,9.06 26.568,9 27.132,8.868 L27.132,8.352 C26.664,8.436 26.136,8.484 25.572,8.484 C24.768,8.484 24.228,8.352 23.94,8.076 C23.664,7.8 23.508,7.248 23.484,6.408 L27.408,6.408 C27.432,6.252 27.444,6.108 27.444,5.976 C27.444,4.044 26.436,3.084 24.66,3.084 C23.808,3.084 23.124,3.336 22.584,3.852 C22.056,4.368 21.792,5.112 21.792,6.084 C21.792,7.236 22.128,8.028 22.752,8.46 C23.388,8.892 24.156,9.06 25.224,9.06 Z M25.836,5.868 L23.484,5.868 C23.496,5.04 23.592,4.464 23.76,4.14 C23.928,3.816 24.228,3.66 24.672,3.66 C25.128,3.66 25.428,3.816 25.584,4.128 C25.74,4.44 25.824,5.016 25.836,5.868 Z M30.192,9 L30.192,3.996 C30.684,3.852 31.188,3.78 31.704,3.78 L32.014272,3.780768 C32.15136,3.78192 32.2608,3.7848 32.34,3.792 L32.34,3.24 C32.088,3.18 31.86,3.156 31.656,3.156 C30.996,3.156 30.468,3.312 30.072,3.636 L30.072,3.18 L28.464,3.18 L28.464,9 L30.192,9 Z M34.512,9.096 C35.16,9.096 35.7,8.952 36.144,8.652 L36.144,9 L37.764,9 L37.764,5.004 C37.764,3.624 36.912,3.12 34.992,3.12 C34.428,3.12 33.792,3.18 33.084,3.3 L33.084,3.816 C33.588,3.744 34.092,3.708 34.596,3.708 C35.688,3.708 36.132,3.924 36.132,4.872 L36.132,5.52 L34.644,5.52 C33.12,5.52 32.364,6.12 32.364,7.32 C32.364,8.412 33.108,9.096 34.512,9.096 Z M35.136,8.496 C34.32,8.496 34.056,8.16 34.056,7.236 C34.056,6.324 34.32,6 35.172,6 L36.132,6 L36.132,8.328 C35.856,8.436 35.52,8.496 35.136,8.496 Z M41.172,9.048 C41.616,9.048 42.048,9 42.468,8.916 L42.468,8.4 C42.216,8.448 42.024,8.472 41.892,8.472 C41.28,8.472 41.052,8.268 41.052,7.632 L41.052,3.732 L42.468,3.732 L42.468,3.18 L41.052,3.18 L41.052,1.512 L39.324,1.512 L39.324,3.18 L38.496,3.18 L38.496,3.732 L39.324,3.732 L39.324,7.356 C39.324,8.616 40.008,9.048 41.172,9.048 Z M45.012,9 L45.012,0.144 L43.284,0.144 L43.284,9 L45.012,9 Z M48.156,9.096 C48.804,9.096 49.344,8.952 49.788,8.652 L49.788,9 L51.408,9 L51.408,5.004 C51.408,3.624 50.556,3.12 48.636,3.12 C48.072,3.12 47.436,3.18 46.728,3.3 L46.728,3.816 C47.232,3.744 47.736,3.708 48.24,3.708 C49.332,3.708 49.776,3.924 49.776,4.872 L49.776,5.52 L48.288,5.52 C46.764,5.52 46.008,6.12 46.008,7.32 C46.008,8.412 46.752,9.096 48.156,9.096 Z M48.78,8.496 C47.964,8.496 47.7,8.16 47.7,7.236 C47.7,6.324 47.964,6 48.816,6 L49.776,6 L49.776,8.328 C49.5,8.436 49.164,8.496 48.78,8.496 Z M54.348,9.06 C56.316,9.06 57.3,8.448 57.312,7.212 C57.324,6.636 57.132,6.216 56.76,5.94 C56.508,5.76 56.028,5.58 55.32,5.388 C54.804,5.256 54.456,5.148 54.264,5.04 C54.036,4.92 53.916,4.716 53.916,4.428 C53.928,3.936 54.312,3.696 55.26,3.696 C55.776,3.696 56.28,3.732 56.772,3.804 L56.772,3.288 C56.184,3.18 55.572,3.12 54.936,3.12 C53.256,3.12 52.416,3.732 52.416,4.944 C52.416,5.4 52.56,5.772 52.86,6.072 C53.088,6.3 53.58,6.516 54.36,6.72 C54.912,6.852 55.284,6.984 55.488,7.092 C55.716,7.224 55.824,7.416 55.812,7.668 C55.812,8.232 55.368,8.484 54.18,8.484 C53.508,8.484 52.896,8.448 52.332,8.376 L52.332,8.88 C53.112,9 53.784,9.06 54.348,9.06 Z" id="kaiseratlas" fill="#FFFFFF" fill-rule="nonzero"></path>
    </g>
</svg>